<svg width="150" height="150" viewBox="0 0 150 150" fill="none" xmlns="http://www.w3.org/2000/svg">
<path d="M25.4258 48.6218L0 23.2005V25.1053L24.4689 49.5742L25.4258 48.6218Z" fill="black" fill-opacity="0.08"/>
<path d="M12.7106 61.3324L0 48.6218V50.5311L11.7582 62.2894L12.7106 61.3324Z" fill="black" fill-opacity="0.08"/>
<path d="M0 0.952381L11.1218 12.0742L12.0742 11.1218L0.952381 0H0V0.952381Z" fill="black" fill-opacity="0.08"/>
<path d="M12.0742 11.1218L11.1218 12.0742L23.8324 24.7894L24.7894 23.8324L13.0311 12.0742L25.1053 0H23.2005L12.0742 11.1218Z" fill="black" fill-opacity="0.08"/>
<path d="M62.9212 11.1218L51.7994 0H49.8947L61.9689 12.0742L62.9212 11.1218Z" fill="black" fill-opacity="0.08"/>
<path d="M36.5476 37.5L37.5 36.5476L25.7418 24.7894L37.5 13.0311L49.2582 24.7894L50.2106 23.8324L37.5 11.1218L24.7894 23.8324L23.8324 24.7894L36.5476 37.5Z" fill="black" fill-opacity="0.08"/>
<path d="M25.4258 123.622L0 98.196V100.105L24.4689 124.574L25.4258 123.622Z" fill="black" fill-opacity="0.08"/>
<path d="M11.7582 137.285L12.7106 136.332L0 123.622V125.527L11.7582 137.285Z" fill="black" fill-opacity="0.08"/>
<path d="M23.8324 99.7848L11.1218 87.0742L12.0742 86.1218L0.952381 75L37.5 38.4524L36.5476 37.5L25.4258 48.6218L24.4689 49.5742L12.7106 61.3324L11.7582 62.2894L0 74.0476V75.9524L23.8324 99.7848Z" fill="black" fill-opacity="0.08"/>
<path d="M24.7894 98.8324L13.0311 87.0742L37.5 62.6053L61.9689 87.0742L50.2106 98.8324L62.9212 86.1218L37.5 60.7006L12.0742 86.1218L11.1218 87.0742L23.8324 99.7848L24.7894 98.8324Z" fill="black" fill-opacity="0.08"/>
<path d="M25.7418 99.7894L37.5 88.0266L49.2582 99.7894L50.2106 98.8324L37.5 86.1218L24.7894 98.8324L23.8324 99.7848V99.7894L36.5476 112.5L37.5 111.548L25.7418 99.7894Z" fill="black" fill-opacity="0.08"/>
<path d="M61.9689 12.0742L50.2106 23.8324L49.2582 24.7894L37.5 36.5476L36.5476 37.5L37.5 38.4524L48.6218 49.5742L49.5742 48.6218L38.4524 37.5L75 0.952381L74.0476 0L62.9212 11.1218L61.9689 12.0742Z" fill="black" fill-opacity="0.08"/>
<path d="M74.0476 75L61.3324 62.2894L62.2894 61.3324L50.5266 49.5742L75 25.1053L99.4689 49.5742L87.7106 61.3324L100.421 48.6218L75 23.2005L49.5742 48.6218L48.6218 49.5742L74.0476 75Z" fill="black" fill-opacity="0.08"/>
<path d="M75 74.0476L63.2418 62.2894L75 50.5266L86.7582 62.2894L75.4212 73.6264L87.7106 61.3324L75 48.6218L62.2894 61.3324L61.3324 62.2894L74.0476 75L75 74.0476Z" fill="black" fill-opacity="0.08"/>
<path d="M75 0.952381L86.1218 12.0742L87.0742 11.1218L75.9524 0H74.0476L75 0.952381Z" fill="black" fill-opacity="0.08"/>
<path d="M86.1218 12.0742L98.8324 24.7894L99.7848 23.8324L88.0266 12.0742L100.105 0H98.196L87.0742 11.1218L86.1218 12.0742Z" fill="black" fill-opacity="0.08"/>
<path d="M136.969 12.0742L137.921 11.1218L126.799 0H124.895L136.969 12.0742Z" fill="black" fill-opacity="0.08"/>
<path d="M112.5 36.5476L100.742 24.7894L112.5 13.0311L124.258 24.7894L112.917 36.1264L125.211 23.8324L112.5 11.1218L99.7848 23.8324L98.8324 24.7894L111.548 37.5L112.5 36.5476Z" fill="black" fill-opacity="0.08"/>
<path d="M37.5 113.452L36.5476 112.5L25.4258 123.622L24.4689 124.574L12.7106 136.332L11.7582 137.285L0.421245 148.626L0 149.043V150H0.952381L37.5 113.452Z" fill="black" fill-opacity="0.08"/>
<path d="M23.2005 150H25.1053L37.5 137.605L49.8947 150H51.7994L37.5 135.696L23.2005 150Z" fill="black" fill-opacity="0.08"/>
<path d="M75 75.9524L74.0476 75L62.9212 86.1218L50.2106 98.8324L49.2582 99.7894L37.5 111.548L36.5476 112.5L37.5 113.452L48.6218 124.574L49.5742 123.622L38.4524 112.5L75 75.9524Z" fill="black" fill-opacity="0.08"/>
<path d="M62.2894 136.332L50.5266 124.574L75 100.105L99.4689 124.574L100.421 123.622L75 98.196L49.5742 123.622L48.6218 124.574L74.0476 150L61.3324 137.285L62.2894 136.332Z" fill="black" fill-opacity="0.08"/>
<path d="M75 149.043L63.2418 137.285L75 125.527L86.7582 137.285L87.7106 136.332L75 123.622L62.2894 136.332L61.3324 137.285L74.0476 150L75 149.043Z" fill="black" fill-opacity="0.08"/>
<path d="M87.7106 61.3324L75.4212 73.6264L75 74.0476L74.0476 75L75 75.9524L98.8324 99.7894V99.7848L86.1218 87.0742L87.0742 86.1218L75.9524 75L112.5 38.4524L111.548 37.5L100.421 48.6218L87.7106 61.3324Z" fill="black" fill-opacity="0.08"/>
<path d="M112.5 60.7006L87.0742 86.1218L86.1218 87.0742L98.8324 99.7848L99.7894 98.8324L88.0266 87.0742L112.5 62.6053L136.969 87.0742L125.211 98.8324L137.921 86.1218L112.5 60.7006Z" fill="black" fill-opacity="0.08"/>
<path d="M112.5 86.1218L99.7894 98.8324L98.8324 99.7848V99.7894L111.548 112.5L112.5 111.548L100.742 99.7894L112.5 88.0266L124.258 99.7894L112.917 111.126L125.211 98.8324L112.5 86.1218Z" fill="black" fill-opacity="0.08"/>
<path d="M136.969 12.0742L125.211 23.8324L112.917 36.1264L112.5 36.5476L111.548 37.5L112.5 38.4524L123.622 49.5742L124.574 48.6218L113.452 37.5L150 0.952381L149.043 0L137.921 11.1218L136.969 12.0742Z" fill="black" fill-opacity="0.08"/>
<path d="M124.574 48.6218L123.622 49.5742L146.896 72.848L149.043 75L136.332 62.2894L137.285 61.3324L125.527 49.5742L150 25.1053V23.2005L124.574 48.6218Z" fill="black" fill-opacity="0.08"/>
<path d="M137.285 61.3324L136.332 62.2894L149.043 75L150 74.0476L138.242 62.2894L150 50.5266V50.5311V48.6218L137.285 61.3324Z" fill="black" fill-opacity="0.08"/>
<path d="M150 0.952381V0H149.043L150 0.952381Z" fill="black" fill-opacity="0.08"/>
<path d="M112.5 113.452L111.548 112.5L100.421 123.622L99.4689 124.574L87.7106 136.332L86.7582 137.285L75 149.043L74.0476 150H75.9524L112.5 113.452Z" fill="black" fill-opacity="0.08"/>
<path d="M98.2006 150H100.105L112.5 137.605L124.895 150H126.799L112.5 135.696L98.2006 150Z" fill="black" fill-opacity="0.08"/>
<path d="M149.043 75L137.921 86.1218L125.211 98.8324L112.917 111.126L112.5 111.548L111.548 112.5L112.5 113.452L123.622 124.574L124.574 123.622L113.452 112.5L150 75.9524L149.043 75Z" fill="black" fill-opacity="0.08"/>
<path d="M124.574 123.622L123.622 124.574L149.043 150L136.332 137.285L137.285 136.332L125.527 124.574L150 100.105V98.196L124.574 123.622Z" fill="black" fill-opacity="0.08"/>
<path d="M137.285 136.332L136.332 137.285L149.043 150L150 149.043L138.242 137.285L150 125.527V123.622L137.285 136.332Z" fill="black" fill-opacity="0.08"/>
<path d="M150 74.0476L149.043 75L150 75.9524V74.0476Z" fill="black" fill-opacity="0.08"/>
<path d="M150 149.043L149.043 150H150V149.043Z" fill="black" fill-opacity="0.08"/>
</svg>
