<svg viewBox="0 0 20 20" xmlns="http://www.w3.org/2000/svg"><path d="M2.383 17.773h15.234v-2.826L20 5.84l-4.961 1.745.296.586c.204.403.216.867.034 1.273-.193.43-.586.745-1.106.889-.015.004-1.523.402-1.979-.952l-.442-1.312 1.256-1.243L10 2.227l-3.098 4.6L8.158 8.07l-.442 1.312c-.38 1.13-1.228 1.024-2.103.907a1.504 1.504 0 0 1-.97-.818 1.48 1.48 0 0 1 .022-1.299l.296-.586L0 5.841l2.383 9.106v2.826Zm1.172-1.16v-1.16h3.859l1.171 1.16h-5.03Zm6.445-.24-1.515-1.5 1.515-1.5 1.515 1.5-1.515 1.5Zm6.445.24h-5.03l1.171-1.16h3.86v1.16ZM1.688 7.666l1.708.6a2.623 2.623 0 0 0 .183 1.69 2.668 2.668 0 0 0 1.79 1.469c1.461.375 2.924-.087 3.459-1.677l.67-1.992L8.41 6.68 10 4.32l1.59 2.36-1.088 1.077.67 1.992c.668 1.983 2.685 1.902 3.405 1.703.864-.238 1.525-.783 1.863-1.536a2.61 2.61 0 0 0 .164-1.649l1.708-.6-1.734 6.627h-3.992L10 11.733l-2.586 2.56H3.422L1.688 7.666Z"/></svg>