<svg viewBox="0 0 20 20" xmlns="http://www.w3.org/2000/svg"><g clip-path="url(#clip0_25192_9581)"><path fill-rule="evenodd" clip-rule="evenodd" d="M9.959 13.56c3.2 0 5.813-2.616 5.813-5.864 0-3.248-2.612-5.864-5.813-5.864-3.202 0-5.814 2.616-5.814 5.864 0 3.248 2.612 5.864 5.814 5.864Zm6.288-2.272a7.243 7.243 0 0 1-4.843 3.542l1.522 2.618 1.48-2.588a.708.708 0 0 1 .667-.355h3.024l-1.85-3.217Zm-.817 4.632h3.88a.707.707 0 0 0 .708-.707v-.004a.706.706 0 0 0-.094-.366l-2.995-5.21a7.335 7.335 0 0 0 .258-1.937c0-4.02-3.236-7.279-7.228-7.279-3.993 0-7.23 3.26-7.23 7.28 0 .728.107 1.432.305 2.096L.096 14.84a.705.705 0 0 0-.096.368v.005c0 .39.317.707.708.707h3.88l1.827 3.195a.708.708 0 0 0 1.276.12l2.33-3.969 2.304 3.965a.708.708 0 0 0 1.278-.116l1.827-3.195ZM4.945 14.505H1.93l1.806-3.103a7.238 7.238 0 0 0 4.888 3.45l-1.527 2.601-1.484-2.593a.708.708 0 0 0-.667-.355Z"/></g><defs><clipPath id="clip0_25192_9581"><path d="M0 0h20v20H0z"/></clipPath></defs></svg>