<svg viewBox="0 0 20 20" xmlns="http://www.w3.org/2000/svg"><path d="M8.823 10.591V8.827H10V7.65H1.767v1.176h1.176v1.764h-.024a2.33 2.33 0 0 0-2.312 2.602L1.63 20h8.48l1.022-6.789.003-.018a2.33 2.33 0 0 0-2.313-2.602ZM4.12 8.827h3.528v1.764H4.12V8.827Zm5.85 4.22-.87 5.777H2.643l-.869-5.778a1.138 1.138 0 0 1 .284-.892c.222-.25.528-.387.861-.387h5.904c.334 0 .64.138.862.387.22.247.32.564.284.892Z"/><path d="M5.883 13.531c-.973 0-1.764.792-1.764 1.764 0 .973.791 1.765 1.764 1.765s1.764-.792 1.764-1.764c0-.973-.791-1.765-1.764-1.765Zm0 2.353a.589.589 0 1 1 .001-1.178.589.589 0 0 1 0 1.178ZM19.408 4.937c0-2.172-.715-4.047-2.722-4.85L16.468 0l-.218.087a3.963 3.963 0 0 0-2.152 1.989c-.378.773-.57 1.735-.57 2.861v8.25l2.352 2.352V20h1.176v-4.46l2.352-2.353v-8.25Zm-2.94-3.661c1.187.578 1.764 1.778 1.764 3.661v2.47l-1.176 1.176V5.887H15.88V7.65l-1.176-.882V4.937c0-1.883.578-3.083 1.764-3.661Zm-1.764 6.963 1.176.882v1.695l-1.176-.588v-1.99Zm0 4.46v-1.156l1.176.588v1.745L14.704 12.7Zm2.352 1.177v-3.63l1.176-1.176v3.63l-1.176 1.176Z"/></svg>