<svg viewBox="0 0 20 22" xmlns="http://www.w3.org/2000/svg"><path d="m13.182 2.867-.248.824c-.104.344-.407.613-.795.705L6.902 5.637c-.053.013-.1-.03-.086-.076l.247-.824c.104-.344.407-.613.795-.705l5.238-1.242c.052-.012.1.03.086.077Zm-.732 1.914-.249.824c-.103.344-.406.613-.794.705l-.889.21c-.037.01-.06.044-.05.077l.337 1.112a.923.923 0 0 1-.29.964l-.679.602c-.038.034-.103.019-.117-.028L8.904 6.56c-.161-.533.194-1.08.794-1.223l2.665-.631c.052-.013.1.03.086.076Z"/><path fill-rule="evenodd" clip-rule="evenodd" d="M10.256 11.6C15.921 11.6 20 9.007 20 5.809 20 2.61 15.92.5 10.256.5S0 2.61 0 5.809C0 9.007 4.592 11.6 10.256 11.6Zm-.06-1.523c4.802 0 8.26-1.887 8.26-4.214 0-2.327-3.458-3.863-8.26-3.863C5.393 2 1.5 3.536 1.5 5.863s3.893 4.214 8.696 4.214Z"/><path d="M20 13.154h-1.304v3.794c0 2.55-3.894 3.898-8.696 3.898s-8.696-1.349-8.696-3.898v-3.794H0v3.794c0 1.84 1.398 2.923 3.18 3.869C4.99 21.777 7.403 22 10 22c2.597 0 5.011-.223 6.82-1.183 1.782-.946 3.18-2.03 3.18-3.869v-3.794Z"/><path d="M20 9.308h-1.304v3.794C18.696 15.652 14.802 17 10 17s-8.696-1.349-8.696-3.898V9.308H0v3.794c0 1.84 1.398 2.923 3.18 3.869 1.809.96 4.223 1.183 6.82 1.183 2.597 0 5.011-.223 6.82-1.183 1.782-.946 3.18-2.03 3.18-3.869V9.308Z"/><path d="m19.13 7-.87.77s.436.8.436 1.486c0 2.55-3.894 3.898-8.696 3.898s-8.696-1.349-8.696-3.898c0-.686.435-1.487.435-1.487L.87 7S0 8.084 0 9.256c0 1.84 1.398 2.922 3.18 3.868 1.809.96 4.223 1.184 6.82 1.184 2.597 0 5.011-.223 6.82-1.184 1.782-.946 3.18-2.029 3.18-3.868C20 8.084 19.13 7 19.13 7Z"/></svg>