<svg viewBox="0 0 37 36" xmlns="http://www.w3.org/2000/svg"><path fill-rule="evenodd" clip-rule="evenodd" d="M14.452 5.62c-1.463 1.526-2.944 3.071-4.407 4.593 1.452 1.52 2.926 3.059 4.367 4.562v.002l4.414-4.588c-1.452-1.521-2.927-3.06-4.374-4.57Zm-1.418 4.587 1.413-1.492c.461.481.94.987 1.401 1.474l-.709.746-.001.001-.708.745-1.396-1.474Z"/><path d="m7.41 12.433-.463.485c-.311.326-.625.654-.933.972a347.13 347.13 0 0 0-1.401-1.475c.153-.157.31-.32.47-.487l.003-.002c.306-.317.623-.645.94-.967.427.452.906.963 1.384 1.474Zm16.492-.444-.004-.004-1.002-1.02-.464.47c-.322.327-.646.656-.949.968l1.407 1.486c.462-.487.946-.992 1.418-1.485l-.406-.415Z"/><path fill-rule="evenodd" clip-rule="evenodd" d="M28.221 31.253V28.99c.146 0 .242 0 .343.006.188 0 .511 0 .915.002h.004c1.57.003 4.347.01 5.076-.014 0 0-.005-1.897 0-3.371.006-2.467.012-4.934-.005-7.401-.006-.347.084-.523.394-.682 1.289-.663 1.953-2.185 1.643-3.647-.31-1.445-1.559-2.532-2.955-2.579-1.525-.053-2.86.999-3.214 2.526-.35 1.527.355 3.078 1.74 3.759.224.106.292.223.292.476-.008 1.88-.007 3.757-.006 5.635v3.093h-3.94c-.046 0-.093-.004-.147-.008l-.129-.01V6.895H26.24a793.42 793.42 0 0 0-5.142.006v-.294L14.592 0 7.758 6.606V6.9C5.591 6.894 3.16 6.894.993 6.894H.667V36H28.21v-4.747h.011Zm-25.443 0h23.338v2.797H2.778v-2.797Zm.005-15.572V9.097h.366c.614 0 1.272-.002 1.947-.004 1.4-.004 2.867-.008 4.14.004V7.975l5.356-5.186 5.04 5.186v1.127c1.446-.008 3.083-.007 4.623-.006h1.838v6.585H2.783Zm-.005 2.244h6.366V29.12H2.778V17.925Zm16.96 11.201V17.92h6.35c.002.04.006.078.01.115.007.05.012.096.012.143.003 1.39.003 3.366.003 5.343 0 1.976 0 3.953.003 5.342 0 .182-.017.288-.237.288-1.992-.006-3.99-.006-5.989-.006a.548.548 0 0 1-.082-.009l-.07-.009Zm-2.162-11.195v11.195H11.3V17.931h6.276Zm16.978-3.33c.005.598-.479 1.104-1.053 1.104-.569-.006-1.053-.511-1.053-1.11.006-.6.496-1.099 1.07-1.087.569.012 1.03.499 1.036 1.092Z"/></svg>