<svg viewBox="0 0 20 20" xmlns="http://www.w3.org/2000/svg"><path d="m11.935 4.127-.795 1.881h-.85V4.023H9.12v1.985h-.85l-.795-1.881-1.079.456L7.493 7.18h4.424l1.098-2.597-1.08-.456Z"/><path d="M17.011 0H5.643C4.438 0 3.458.98 3.458 2.185V15.95H.184v1.9c0 1.186.965 2.151 2.15 2.151h11.403c1.597 0 2.15-1.373 2.22-2.099l.003-.028V4.051h3.274V2.223A2.226 2.226 0 0 0 17.011 0ZM2.335 18.828a.98.98 0 0 1-.98-.979v-.728H11.52v.808l.002.028a2.01 2.01 0 0 0 .026.178l.004.024.02.094.005.019a2.48 2.48 0 0 0 .056.191l.007.021c.011.034.024.068.037.102l.011.027c.01.027.022.053.034.08l.013.03.049.101.002.004h-9.45ZM15.012 1.251a1.292 1.292 0 0 0-.048.105l-.004.01a2.168 2.168 0 0 0-.033.082l-.006.018-.03.09-.006.018c-.01.03-.018.059-.025.088l-.002.008a2.274 2.274 0 0 0-.022.094l-.005.022a2.294 2.294 0 0 0-.017.095l-.002.014-.011.09-.002.017a2.111 2.111 0 0 0-.008.098v.02a2.166 2.166 0 0 0-.003.103v15.585c-.01.067-.055.305-.184.532-.19.333-.466.488-.867.488-.025 0-.05 0-.073-.002-.355-.016-.604-.157-.78-.439a1.497 1.497 0 0 1-.194-.525V15.95H4.63V2.185c0-.559.454-1.013 1.013-1.013h9.41a2.123 2.123 0 0 0-.04.08Zm3.05 1.628H15.96v-.656a1.053 1.053 0 0 1 1.051-1.051c.58 0 1.051.471 1.051 1.051v.656Z"/><path d="M12.918 9.88H6.492v1.171h6.426V9.88Zm0 2.455H6.492v1.172h6.426v-1.172Z"/></svg>