<svg viewBox="0 0 37 36" xmlns="http://www.w3.org/2000/svg"><path d="M22.039 10.652c-.134-.096-.228-.055-.322-.069H11.316c-.241 0-.321.055-.308.317.027.412 0 .811 0 1.224 0 .633-.415 1.046-1.03 1.046H5.063c-.629 0-1.017-.399-1.017-1.046.013-3.192.013-6.385.013-9.578 0-.674.389-1.046 1.045-1.046h4.912c.643 0 1.018.4 1.031 1.06v.674a27.193 27.193 0 0 1 2.142-.811c1.901-.62 3.842-1.019 5.85-.895 1.874.11 3.668.606 5.422 1.294.267.11.535.22.803.344.134.055.187.055.187-.124v-.55c0-.565.415-.978.95-.978h5.195c.522 0 .91.372.95.909V9.99c0 .413-.12.73-.401 1.032-3.642 3.799-6.038 8.312-7.336 13.46-.723 2.903-1.085 5.848-.924 8.848.04.757-.469 1.17-1.111 1.17-3.882-.028-7.764 0-11.646 0-.763 0-1.138-.482-1.058-1.267.576-5.903 3.025-11.009 6.292-15.756 1.62-2.367 3.453-4.542 5.435-6.592a1.97 1.97 0 0 1 .24-.207v-.027Zm-4.766-1.996h7.082c.522 0 .83.193.99.62.16.413.04.812-.335 1.142a48.226 48.226 0 0 0-7.764 9.137c-2.543 3.881-4.484 8.037-5.167 12.716-.027.179-.067.29.187.29h9.465c.2 0 .24-.056.24-.249 0-2.972.389-5.89 1.152-8.752 1.365-5.16 3.788-9.702 7.39-13.569.093-.11.173-.206.173-.357V3.647c0-.151-.04-.206-.187-.192h-2.972c-.134 0-.174.04-.174.179v1.06c0 .852-.71 1.293-1.432.907a23.55 23.55 0 0 0-2.624-1.17c-2.771-1.031-5.582-1.32-8.447-.481-1.446.427-2.865.95-4.217 1.651-.723.372-1.432-.068-1.432-.88V3.66c0-.165-.04-.22-.214-.22H6.202c-.174 0-.227.041-.227.234v7.307c0 .193.04.262.24.262h2.732c.2 0 .24-.07.24-.262V9.757c0-.743.349-1.087 1.085-1.087h7.041l-.04-.014Z"/></svg>