<svg viewBox="0 0 36 36" xmlns="http://www.w3.org/2000/svg"><path d="M17.907 22.24h-3.62c-.606 0-.968-.262-1.134-.838a575.982 575.982 0 0 1-1.379-4.838c-.256-.92.438-1.6 1.373-1.357.563.146 1.13.29 1.686.46.24.074.384.062.549-.163.525-.717 1.083-1.41 1.627-2.114.554-.72 1.308-.715 1.868.011.544.704 1.102 1.397 1.627 2.114.156.213.293.228.52.16a44.936 44.936 0 0 1 1.72-.471c.931-.242 1.611.446 1.354 1.373-.254.908-.52 1.814-.78 2.72-.199.695-.396 1.39-.599 2.082-.175.599-.53.86-1.156.86h-3.656Zm3.666-4.534c-.335.095-.59.17-.848.237-.632.166-.973.046-1.373-.473-.413-.537-.834-1.069-1.238-1.613-.134-.18-.207-.197-.35-.004-.416.563-.853 1.113-1.28 1.667-.326.422-.73.599-1.26.437-.286-.087-.577-.153-.922-.245.224.799.434 1.542.64 2.287.039.135.136.133.246.133 1.836-.002 3.674-.002 5.51 0 .117 0 .189-.019.226-.15.204-.736.418-1.47.649-2.276ZM2.172 19.327a.562.562 0 0 1 0-.12.79.79 0 0 0 0 .217c.026.256.057.51.093.764-.038-.286-.07-.572-.093-.861Zm.003-2.69c.017-.205.038-.411.064-.615-.029.213-.051.427-.07.643-.013.144 0 .222.08.255-.075-.042-.086-.134-.074-.283Zm.413 5.21c.09.364.193.726.308 1.085l.09.268a14.938 14.938 0 0 0 .7 1.695 17.103 17.103 0 0 1-1.098-3.049Zm.765-10.01-.024.06.05-.123c-.01.022-.02.041-.026.063Zm1.675 7.494c-.014-.132-.043-.205-.11-.243.054.035.084.104.096.23.082.762.223 1.502.424 2.217a13.182 13.182 0 0 1-.41-2.204Zm.143-3.73c-.072.377-.13.76-.164 1.143a.708.708 0 0 1-.01.07.628.628 0 0 0 .027-.139 13.32 13.32 0 0 1 .342-1.946c-.076.286-.14.576-.195.872Zm6.48 19.238a7.012 7.012 0 0 1-.308-.118l-.053-.021.208.084.299.113.135.046a16.707 16.707 0 0 1-.282-.104Zm-.516-.203c.05.023.104.042.155.064-.03-.013-.06-.024-.088-.037a.626.626 0 0 1-.067-.027Zm-1.006-.452a18.403 18.403 0 0 1-.5-.253 16.376 16.376 0 0 1-1.008-.572 20.003 20.003 0 0 1-.59-.377l-.19-.129a4.165 4.165 0 0 1-.152-.107 8.386 8.386 0 0 1-.231-.163 17.36 17.36 0 0 1-1.307-1.042 17.758 17.758 0 0 1-1.599-1.579 17.863 17.863 0 0 0 6 4.42l-.17-.077-.253-.12Zm.507.238c.055.026.111.05.168.075-.085-.037-.168-.076-.252-.114.028.012.056.027.084.04ZM.046 16.72A17.987 17.987 0 0 1 5.795 4.77 17.857 17.857 0 0 0 .046 16.72Zm5.887-9.044c.088-.07.17-.071.285.029-.11-.117-.176-.14-.285-.029Zm1.132.878c-.206-.204-.413-.406-.614-.611.336.357.687.705 1.04 1.046-.143-.145-.284-.292-.426-.435Zm.771.767c-.064-.06-.13-.12-.192-.183.07.07.142.138.214.207.062.06.101.11.118.16-.014-.06-.065-.115-.14-.184Zm1.53-1.449a59.93 59.93 0 0 0-1.638-1.639c-.077-.075-.114-.131-.114-.183-.007.058.034.115.117.194A65.98 65.98 0 0 1 9.295 7.81a.964.964 0 0 0 .124.113c-.017-.014-.033-.031-.053-.05ZM7.689 30.076a14.877 14.877 0 0 0 2.405 1.697 17.32 17.32 0 0 1-2.405-1.697ZM9.16 11.555a11.28 11.28 0 0 0-.964 1.562c-.1.195-.192.394-.276.594a11.258 11.258 0 0 1 1.985-3.056 11.06 11.06 0 0 1 2.099-1.827c-1.073.703-2.023 1.613-2.844 2.727Zm-.92-6.09a15.66 15.66 0 0 1 4.328-2.4 14.802 14.802 0 0 0-4.329 2.4Zm3.023 21.14c-.638-.497-1.248-1.13-1.84-1.835-.606-.76-1.1-1.569-1.478-2.428.677 1.596 1.75 2.991 3.204 4.184a10.349 10.349 0 0 0 3.495 1.893c-1.181-.39-2.308-.996-3.381-1.814Zm8.033 2.243c-.106.014-.21.026-.314.034a6.573 6.573 0 0 0 .473-.053 5.487 5.487 0 0 1-.16.02Zm-.243 2.155-2.236-.02c.711.095 1.46.09 2.236.02Zm2.058-25.681c.95.234 1.857.567 2.723 1.003a12.427 12.427 0 0 0-2.723-1.003Zm.381 23.035a10.335 10.335 0 0 0 4.217-2.6 10.969 10.969 0 0 1-4.217 2.6Zm.988 4.885a14.905 14.905 0 0 0 4.943-2.454 15.636 15.636 0 0 1-4.943 2.454ZM26.493 11.1c-1.167-1.412-2.543-2.46-4.123-3.135.798.357 1.567.82 2.31 1.384a20.55 20.55 0 0 1 1.917 1.903c.88 1.13 1.511 2.337 1.894 3.615a10.576 10.576 0 0 0-1.998-3.768Zm.331-6.312a18.836 18.836 0 0 0-.927-.56c.844.49 1.623 1.033 2.337 1.626a11.717 11.717 0 0 0-1.41-1.066Zm1.446 24.965a58.211 58.211 0 0 1-1.616-1.615.667.667 0 0 0-.096-.083c.024.018.05.042.079.072.528.548 1.063 1.09 1.615 1.614.126.118.15.197.106.279.058-.085.028-.155-.088-.267Zm-.122-3.1c-.103-.1-.156-.172-.125-.274-.046.095-.006.155.087.242.279.268.548.544.822.819.199.198.402.392.597.594a67.33 67.33 0 0 0-1.381-1.38Zm1.587 1.594a2.698 2.698 0 0 0-.108-.112c.032.034.063.07.095.103.112.124.19.18.292.121-.085.043-.163.007-.279-.112Zm.786-6.577c.022-.072.042-.144.062-.217l.011-.046-.073.263Zm.073-.263a1.371 1.371 0 0 0 .038-.141l.021-.088-.059.229Zm.382-2.089a9.507 9.507 0 0 1-.041.35l-.009.066a5.992 5.992 0 0 1-.057.384c-.01.07-.021.138-.035.206-.008.049-.016.098-.027.148a7.075 7.075 0 0 1-.076.373c.069-.292.128-.587.176-.889.032-.208.079-.417.079-.627 0-.052.004-.095.012-.132a.722.722 0 0 0-.022.121Zm.011-2.637a13.718 13.718 0 0 0-.353-1.947c.159.63.271 1.276.337 1.94.01.094.03.156.064.195a.424.424 0 0 1-.048-.188ZM20.059.117a18.074 18.074 0 0 1 11.356 5.88A17.844 17.844 0 0 0 20.06.116Zm13.505 26.927a17.69 17.69 0 0 0 2.428-8.604 18 18 0 0 1-2.428 8.604Zm-.915-2.894c-.202.482-.427.95-.672 1.404.56-1.026.993-2.096 1.305-3.21a16.252 16.252 0 0 1-.633 1.806Zm.06-12.16c-.136-.334-.284-.66-.442-.982a17.47 17.47 0 0 1 1.279 3.727 15.494 15.494 0 0 0-.837-2.745Zm1.11 7.17a.44.44 0 0 1 .007.154c-.032.416-.082.828-.146 1.235.063-.388.114-.78.15-1.177a.496.496 0 0 0-.011-.212Zm.013-2.526-.031-.3c.011.122.02.244.026.367a.495.495 0 0 1-.005.126.51.51 0 0 0 .01-.193Z"/><path d="M.004 17.95v.007l.001.034v-.17l-.001.129Zm.003.277a2.855 2.855 0 0 0 .002.142l-.002-.142Zm.01.416v-.061a.808.808 0 0 1-.001.011c.002.01.002.02.002.03v.05l.003.041a.825.825 0 0 1-.003-.071Zm.006.156.002.03a4.286 4.286 0 0 0-.002-.048v.018ZM.23 20.82a19.627 19.627 0 0 1-.073-.504c.012.1.027.2.04.3l.04.25a1.117 1.117 0 0 1-.007-.046Zm2.545 6.78-.185-.3a13.363 13.363 0 0 1-.353-.614 17.765 17.765 0 0 1-1.599-3.952 18.92 18.92 0 0 1-.397-1.84 17.711 17.711 0 0 0 3.33 7.867 17.77 17.77 0 0 1-.796-1.161Zm-2.68-7.832a10.434 10.434 0 0 0-.004-.052l.004.052Zm2.08-.57c.022-.096.087-.144.24-.15-.147 0-.223.026-.24.15Zm.083-3.318Zm.05 4.591ZM4.7 19.048c-.724.01-1.449.012-2.173 0 .728.027 1.456.016 2.183.003a.44.44 0 0 1 .2.03c-.048-.03-.117-.034-.21-.033Zm-2.283-2.105a.518.518 0 0 1-.154-.016c.043.02.105.027.193.021.071-.004.145-.007.216-.008l-.255.003Zm2.318.001a58.764 58.764 0 0 0-1.72-.007c.076 0 .15.002.226.003l.338.003c.397 0 .796-.006 1.195.003.126.002.192-.016.22-.122-.036.09-.106.123-.259.12ZM5.8 7.814a16.543 16.543 0 0 0-1.72 2.525c.249-.449.523-.891.822-1.323.312-.452.638-.892 1-1.306l.022-.025a.857.857 0 0 0-.124.13Zm.496-.035a.86.86 0 0 0-.075-.072c.07.072.138.144.209.214l-.134-.142Zm.138 16.267Zm.65-5.516a11.99 11.99 0 0 1-.007-1.101 11.947 11.947 0 0 0 .048 1.754c.096.97.317 1.89.658 2.765a11.28 11.28 0 0 1-.699-3.418Zm.077 6.736c.023.036.047.073.073.11.02.03.04.057.062.087l-.135-.197Zm.135.197c.18.265.374.525.58.773a14.166 14.166 0 0 1-.58-.773Zm.683-15.947c.011.067-.019.14-.103.245a13.712 13.712 0 0 0-1.26 1.854c.364-.643.787-1.259 1.268-1.847.085-.104.116-.18.095-.252ZM7.748 5.86c-.072.06-.116.109-.128.157a.4.4 0 0 1 .12-.143c.164-.14.33-.277.5-.41-.167.129-.33.261-.492.396Zm2.684 1.506c-.22.157-.458.295-.644.485-.148.154-.25.155-.356.08.113.09.194.064.328-.046a13.537 13.537 0 0 1 1.594-1.12c-.314.182-.62.384-.922.6Zm1.159-.74Zm-1.497 25.146a14.787 14.787 0 0 0 4.03 1.642 16.417 16.417 0 0 1-4.03-1.642ZM16.72 2.167c-.55.038-1.09.119-1.63.217-.81.15-1.592.355-2.347.618a17.69 17.69 0 0 1 3.992-.835h-.015Zm-8.329.61a6.067 6.067 0 0 0-.2.13c.048-.033.098-.064.147-.095.052-.033.104-.066.158-.098l.102-.064a13.544 13.544 0 0 0-.207.127Zm1.041-.607c.154-.083.307-.165.463-.242a13.005 13.005 0 0 1 .693-.332c.064-.03.128-.058.192-.085a12.246 12.246 0 0 1 .54-.227A17.138 17.138 0 0 1 12.728.79c.007-.003.014-.006.02-.007a13.061 13.061 0 0 1 .684-.193 8.92 8.92 0 0 1 .458-.113 12.774 12.774 0 0 1 .715-.152c.07-.016.144-.028.216-.04a16.832 16.832 0 0 1 1.367-.191 9.09 9.09 0 0 1 .386-.037A17.77 17.77 0 0 0 9.432 2.17Zm-.146.079c.047-.027.097-.052.146-.079l-.035.018c-.037.02-.075.04-.111.061Zm-2.141 1.39.035-.025a.761.761 0 0 0-.035.025Zm9.578 25.213a11.099 11.099 0 0 1-2.034-.42 10.45 10.45 0 0 0 4.293.45c-.71.06-1.47.038-2.26-.03Zm10.853 4.383a15.05 15.05 0 0 1-.976.573l-.062.034c-.079.042-.16.086-.24.127-.03.017-.061.032-.092.048-.092.046-.183.093-.276.138-.106.052-.213.104-.32.153-.01.006-.02.01-.03.014a17.57 17.57 0 0 1-2.414.92l-.322.093c-.091.025-.183.05-.276.073-.032.01-.064.018-.097.027-.09.022-.18.045-.272.066l-.084.02a10.7 10.7 0 0 1-.31.07l-.05.011c-.1.022-.202.043-.303.06a.72.72 0 0 1-.075.016 15.708 15.708 0 0 1-1.035.165c-.035.006-.07.01-.106.014a15.322 15.322 0 0 1-1.007.096 5.494 5.494 0 0 1-.224.014l-.23.011a17.05 17.05 0 0 1-.77.017c-.69 0-1.372-.038-2.043-.112a17.912 17.912 0 0 0 11.614-2.648Zm-10.759-2.252c.711.095 1.46.09 2.236.02l-2.236-.02Zm-.511-23.792c-1.516.23-2.893.739-4.122 1.522 1.301-.814 2.778-1.332 4.423-1.553.958-.06 1.867-.072 2.701-.012 1.085.136 2.096.405 3.036.804-1.867-.83-3.886-1.088-6.038-.761Zm2.976 26.638c.018-.001.039-.001.061-.004a11.597 11.597 0 0 0-.061.004Zm.371-5.03a10.55 10.55 0 0 0 1.677-.39 12.02 12.02 0 0 1-1.677.39Zm.385 4.947c.417-.053.83-.12 1.245-.207.076-.015.15-.032.225-.049.113-.025.222-.052.334-.079.11-.028.22-.056.33-.086a18.3 18.3 0 0 1-2.134.421Zm5.19-29.893a14.462 14.462 0 0 0-3.7-1.356 16.33 16.33 0 0 1 4.37 1.73 18.033 18.033 0 0 0-.67-.374Zm-.784 25.49c.065-.036.128-.072.192-.11 0 0 0-.002.003-.003l-.195.113Zm.195-.113.094-.056.07-.044c-.055.034-.11.068-.165.1Zm1.604-1.125c-.09.072-.178.143-.268.212l-.131.099-.117.089-.156.114-.035.025a11.587 11.587 0 0 1-.448.304c-.07.047-.138.09-.207.134.222-.137.442-.28.66-.432.238-.168.485-.333.699-.527.101-.094.176-.128.255-.103-.076-.03-.148 0-.253.085Zm1.867-1.872a.474.474 0 0 0-.086.142.441.441 0 0 1 .06-.088 13.386 13.386 0 0 0 1.57-2.411 13.146 13.146 0 0 1-1.544 2.357Zm.148 3.888c-.223.19-.448.372-.678.548.217-.162.431-.332.643-.507a.587.587 0 0 0 .132-.138.694.694 0 0 1-.097.097Zm.283-15.083Zm.376 2.239a10.937 10.937 0 0 1-1.963 6.987c-.351.496-.726.952-1.124 1.37 1.698-1.73 2.82-4.01 3.054-6.51.06-.63.07-1.246.033-1.847Zm1.225 10.963a.495.495 0 0 1-.128.118.485.485 0 0 0 .145-.13c.362-.439.701-.89 1.015-1.357a19.13 19.13 0 0 1-1.032 1.369Zm1.146-9.193c-.167-.01-.253.026-.285.138.035-.104.108-.135.266-.133.083.002.167.003.25.003a6.366 6.366 0 0 1-.23-.008Zm.007-2.104c-.124.001-.208-.011-.26-.075.037.06.103.083.23.08.736-.014 1.471-.01 2.206-.002a62.367 62.367 0 0 0-2.176-.003Zm2.287-2.048a6.618 6.618 0 0 0-.036-.16c.108.52.191 1.045.252 1.576-.042-.476-.114-.95-.216-1.416Zm.003 2.052c.142.002.214-.017.235-.114-.026.08-.097.111-.235.114Zm-.015 2.1c-.385.018-.772.005-1.158.005-.297 0-.596.009-.893.003.678.013 1.355.014 2.034-.003.159-.005.234.027.265.102-.024-.09-.099-.114-.248-.107ZM31.633 6.244a18.077 18.077 0 0 1 4.363 11.824c.024-4.225-1.43-8.451-4.363-11.824Zm-14.816 24.74c.711.094 1.46.09 2.236.019l-2.236-.02Zm0 0c.711.094 1.46.09 2.236.019l-2.236-.02Z"/><path d="M31.633 6.244a18.811 18.811 0 0 0-.85-.914A18.074 18.074 0 0 0 20.059.117c-.127-.014-.252-.028-.379-.04l-.392-.032c-.005.001-.01 0-.018-.001-.13-.009-.26-.016-.391-.023a7.812 7.812 0 0 0-.405-.015L18.262 0h-.233a14.973 14.973 0 0 0-.542.008l-.062.002a17.39 17.39 0 0 0-1.434.104c-.394.042-.784.1-1.17.17-.071.012-.145.024-.215.04-.155.028-.308.06-.462.094-.084.019-.17.037-.253.058a6.982 6.982 0 0 0-.247.06 12.59 12.59 0 0 0-.894.246c-.007.001-.014.004-.021.007a9.926 9.926 0 0 0-.385.122 17.138 17.138 0 0 0-1.983.789c-.157.073-.312.149-.466.228-.167.083-.333.17-.498.26-.037.02-.075.04-.111.061l-.158.089a11.727 11.727 0 0 0-.379.22c-.05.029-.101.06-.15.092l-.103.064a5.935 5.935 0 0 0-.158.098 12.616 12.616 0 0 0-.677.453l-.178.126-.227.166-.076.057-.035.025a8.955 8.955 0 0 0-.246.19 4.68 4.68 0 0 0-.17.134l-.166.135-.001.001c-.086.07-.17.141-.253.213l-.278.242-.236.216A17.987 17.987 0 0 0 .028 17.026c0 .014-.003.027 0 .04l-.009.149c-.005.09-.008.18-.008.271l-.003.168c-.001.056-.003.111-.003.168l.002.215v.19l.002.142.003.048.006.165v.061c0 .024.001.047.003.071l.002.067a18.682 18.682 0 0 0 .019.339l.011.186c.004.062.01.124.016.186l.02.225c.01.1.02.2.032.3a18.984 18.984 0 0 0 .211 1.391 15.148 15.148 0 0 0 .13.624 18.575 18.575 0 0 0 .607 2.073 17.765 17.765 0 0 0 1.52 3.196c.06.1.123.2.185.3a17.833 17.833 0 0 0 1.778 2.361c.222.248.451.49.69.728a17.758 17.758 0 0 0 1.065.986c.3.258.607.503.92.737l.23.17c.077.056.154.11.232.163.049.037.1.072.152.107l.19.129a20.003 20.003 0 0 0 .857.538 16.376 16.376 0 0 0 .996.543 18.403 18.403 0 0 0 .752.36l.168.074.104.045.053.023c.058.023.116.049.174.071.022.01.045.02.067.027.028.013.058.024.088.037l.053.02a16.707 16.707 0 0 0 .6.227l.184.065c.009.005.017.007.026.01.014.006.028.01.042.014a8.827 8.827 0 0 0 .466.152l.054.017c.088.028.176.055.264.08l.098.027c.23.066.463.128.697.183a11.314 11.314 0 0 0 .452.104c.111.025.22.047.332.068.01.003.021.004.031.006.103.02.204.04.307.056.045.009.092.016.138.024.083.014.165.028.248.04a18.467 18.467 0 0 0 3.494.186l.23-.012a13.865 13.865 0 0 0 .913-.073c.105-.011.212-.023.317-.037.035-.004.07-.008.106-.014a15.708 15.708 0 0 0 1.035-.165l.075-.015c.101-.018.202-.04.302-.06l.051-.012a10.7 10.7 0 0 0 .31-.07l.084-.02c.092-.021.182-.044.272-.066.033-.009.065-.017.097-.027.093-.023.185-.048.276-.073l.323-.093.222-.07a17.57 17.57 0 0 0 2.192-.85c.01-.004.02-.008.03-.014.106-.05.213-.101.319-.153.093-.045.184-.092.276-.138.03-.016.062-.031.091-.048.08-.041.162-.085.241-.127l.062-.034a18.57 18.57 0 0 0 1.384-.836l.006-.005c.05-.033.102-.067.152-.102.006-.005.012-.007.017-.012a16.7 16.7 0 0 0 .257-.178l.137-.099.141-.103.285-.215a17.822 17.822 0 0 0 1.733-1.52l.019-.018.01-.01a16.344 16.344 0 0 0 .567-.594l.086-.096a17.799 17.799 0 0 0 1.483-1.887l.2-.299c.114-.176.227-.354.335-.533l.152-.257a18 18 0 0 0 2.43-8.744c.002-.073.002-.148.002-.22v-.012c0-4.528-1.643-8.658-4.363-11.824ZM19.05 2.425c-.004-.215.042-.273.268-.255.75.06 1.488.166 2.21.327a14.508 14.508 0 0 1 4.371 1.731c.31.174.62.362.926.559.494.318.966.674 1.41 1.066l.04.036c.16.141.142.213.003.345a75.089 75.089 0 0 0-1.639 1.642c-.152.161-.23.134-.387.007a13.537 13.537 0 0 0-2.417-1.558 12.91 12.91 0 0 0-3.136-1.096l-.256-.05a8.379 8.379 0 0 0-.276-.05c-.006 0-.011-.002-.017-.003-.26-.044-.521-.111-.782-.108-.3.004-.322-.138-.318-.38.013-.737.013-1.475 0-2.213Zm3.295 5.527c.009.003.017.008.026.012 1.58.676 2.956 1.723 4.123 3.134a10.576 10.576 0 0 1 2.048 3.94c.135.474.235.96.3 1.454v.004a9.643 9.643 0 0 1 .076.78c.038.602.027 1.219-.033 1.848-.235 2.5-1.356 4.78-3.054 6.51a10.335 10.335 0 0 1-4.5 2.776 10.55 10.55 0 0 1-1.677.389l-.032.006c-.055.008-.11.017-.166.024a4.313 4.313 0 0 1-.473.053 10.45 10.45 0 0 1-4.338-.463 10.354 10.354 0 0 1-3.495-1.893c-1.454-1.193-2.527-2.588-3.204-4.184a2.596 2.596 0 0 1-.073-.172c-.027-.06-.051-.122-.075-.184a10.39 10.39 0 0 1-.672-2.802c-.02-.205-.035-.409-.045-.61a11.188 11.188 0 0 1 .02-1.535c.004-.07.011-.137.018-.206l.017-.17a11.924 11.924 0 0 1 .204-1.192 10.09 10.09 0 0 1 .996-2.62 12.126 12.126 0 0 1 .394-.67c.136-.21.28-.42.431-.626.821-1.114 1.77-2.024 2.844-2.727l.18-.115a10.521 10.521 0 0 1 4.122-1.522c2.152-.327 4.171-.07 6.038.761Zm-5.527 23.031c.711.095 1.46.09 2.236.02l-2.236-.02ZM7.617 6.03l.003-.011c.012-.048.056-.096.128-.157.162-.135.325-.267.491-.396a14.802 14.802 0 0 1 4.504-2.463 15.808 15.808 0 0 1 2.346-.618c.54-.098 1.082-.179 1.63-.217h.023c.178-.008.212.055.206.226-.01.397-.003.795-.003 1.194 0 .362-.012.727.004 1.088.01.22-.022.31-.283.338a13.198 13.198 0 0 0-3.043.688l-.198.071c-.07.026-.137.053-.206.08-.089.035-.178.07-.266.108l-.193.081c-.09.04-.18.08-.27.123l-.134.063a12.136 12.136 0 0 0-1.002.538c-.549.33-1.081.703-1.594 1.121-.134.11-.215.137-.328.047l-.013-.01a.964.964 0 0 1-.124-.113 65.628 65.628 0 0 0-1.564-1.566c-.083-.079-.124-.136-.117-.194l.003-.021ZM2.168 16.665c.02-.216.042-.43.07-.643.005-.048.012-.094.019-.141a14.822 14.822 0 0 1 .318-1.697l.042-.165c.019-.076.04-.15.061-.226.031-.113.062-.226.096-.338l.018-.061c.032-.111.068-.221.104-.332.038-.123.08-.243.123-.362a12.225 12.225 0 0 1 .36-.926 8.641 8.641 0 0 1 .197-.448l.036-.075a15.303 15.303 0 0 1 .467-.912A16.67 16.67 0 0 1 5.8 7.814a.857.857 0 0 1 .124-.13l.009-.008c.11-.11.176-.088.285.029l.003.002a.86.86 0 0 1 .075.072l.134.142.02.022c.202.205.41.407.615.61l.426.436.146.142c0 .003.004.004.007.007.063.062.128.123.192.183.075.07.126.124.14.183.001.005.001.009.003.012.02.073-.01.148-.095.252a13.162 13.162 0 0 0-1.268 1.847l-.098.178a13.785 13.785 0 0 0-.26.501 12.98 12.98 0 0 0-.49 1.146l-.08.22c-.051.148-.1.297-.147.447a12.796 12.796 0 0 0-.175.622 13.32 13.32 0 0 0-.342 1.946.628.628 0 0 1-.027.14l-.002.01c-.029.105-.095.123-.221.12-.399-.008-.798-.002-1.195-.002l-.338-.003c-.076-.001-.15-.003-.226-.003H2.96l-.266.003a5.419 5.419 0 0 0-.238.008.414.414 0 0 1-.193-.02l-.014-.008c-.08-.034-.093-.11-.08-.255Zm4.89 10.785c-.265.265-.544.518-.792.798-.17.195-.263.16-.418-.022-.65-.77-1.22-1.59-1.707-2.458a15.243 15.243 0 0 0 .824 1.328 14.547 14.547 0 0 1-1.163-1.965c-.04-.078-.078-.157-.116-.236a16.555 16.555 0 0 1-.605-1.428 14.938 14.938 0 0 1-.185-.535 13.81 13.81 0 0 1-.308-1.086 3.678 3.678 0 0 1-.042-.169 2.622 2.622 0 0 1-.041-.17c-.011-.05-.023-.099-.033-.15a11.816 11.816 0 0 1-.164-.885 17.102 17.102 0 0 1-.135-1.048.79.79 0 0 1 0-.217V19.2c.018-.124.094-.15.24-.15h.006a.74.74 0 0 1 .079 0h.03c.723.01 1.448.01 2.172 0 .093-.002.162.002.21.032l.009.007c.066.038.095.11.11.243.075.758.212 1.492.41 2.204l.054.195.06.192c.019.064.039.129.06.192l.074.215a9.98 9.98 0 0 0 .255.669 14.293 14.293 0 0 0 .385.84 15.309 15.309 0 0 0 .391.722 14.336 14.336 0 0 0 .443.706l.135.197c.183.262.376.52.58.773.015.021.034.042.05.063.115.137.09.202-.022.307-.289.276-.566.562-.846.844Zm7.065 5.965a14.787 14.787 0 0 1-3.971-1.607.425.425 0 0 1-.058-.035c-.1-.055-.2-.112-.3-.171a14.877 14.877 0 0 1-2.046-1.472l-.06-.054v-.001c-.12-.128-.077-.209.06-.34a80.643 80.643 0 0 0 1.591-1.59c.142-.147.224-.184.411-.032.585.47 1.193.886 1.824 1.242.06.033.118.067.178.099a11.653 11.653 0 0 0 .539.28l.194.093c.065.031.131.06.196.09.066.03.13.058.197.086l.194.082.234.093c.058.02.116.043.173.064a13.507 13.507 0 0 0 1.243.387 9.577 9.577 0 0 0 .642.15l.138.028.208.038.045.009.045.008c.287.05.578.107.868.121.225.01.287.08.283.303a58.834 58.834 0 0 0 0 2.286c.004.218-.05.27-.27.252a16.01 16.01 0 0 1-2.519-.399c-.012-.003-.026-.005-.039-.01Zm14.235-3.396-.003.005a.587.587 0 0 1-.133.138 16.51 16.51 0 0 1-.8.626 14.905 14.905 0 0 1-5.065 2.488 15.447 15.447 0 0 1-.85.214l-.224.05a16.373 16.373 0 0 1-1.624.251c-.106.013-.21.024-.316.034-.022.003-.043.003-.061.004-.215.006-.243-.091-.233-.302.018-.375.006-.75.006-1.124 0-.375.005-.773-.003-1.16-.004-.164.023-.233.217-.254a13.37 13.37 0 0 0 3.398-.801c.066-.027.134-.052.2-.08a7.805 7.805 0 0 0 .397-.168c.12-.051.237-.106.354-.16.102-.05.205-.1.306-.154.11-.055.219-.113.327-.174l.116-.064a.858.858 0 0 0 .077-.045l.195-.113a10.349 10.349 0 0 0 .239-.146l.003-.002c.069-.044.138-.087.207-.134a11.587 11.587 0 0 0 .448-.304l.035-.025.156-.114c.04-.028.078-.058.117-.089l.131-.099c.09-.069.179-.14.267-.212.105-.085.177-.114.253-.085.008 0 .015.007.023.012a.06.06 0 0 1 .015.007.667.667 0 0 1 .121.099 59.983 59.983 0 0 0 1.616 1.614c.116.112.146.182.088.267Zm5.472-10.647a17.111 17.111 0 0 1-.297 1.956c-.014.075-.03.148-.048.221l-.055.237a11.564 11.564 0 0 1-.148.557 15.301 15.301 0 0 1-1.573 3.683c-.049.086-.101.17-.153.256-.052.084-.104.167-.158.25l-.087.135-.014.021a17.373 17.373 0 0 1-1.138 1.54.485.485 0 0 1-.145.13c-.101.06-.18.003-.292-.12l-.095-.104c-.033-.035-.064-.069-.098-.101-.195-.202-.398-.396-.597-.594-.274-.275-.543-.551-.822-.819-.093-.087-.133-.147-.087-.242l.001-.003a.474.474 0 0 1 .086-.142 13.146 13.146 0 0 0 1.543-2.357s.002-.007.005-.01c.063-.125.123-.25.183-.378l.093-.204c.03-.064.057-.13.085-.197.029-.066.055-.132.082-.198.027-.067.054-.133.079-.2a9.999 9.999 0 0 0 .263-.758l.02-.066a4.622 4.622 0 0 0 .058-.196c.025-.087.05-.175.073-.263l.06-.229.008-.035c.01-.049.024-.098.035-.149l.012-.055.022-.094a7.075 7.075 0 0 0 .102-.521 2.86 2.86 0 0 0 .036-.206 5.992 5.992 0 0 0 .058-.384l.008-.067c.015-.115.03-.232.04-.349a.722.722 0 0 1 .027-.132c.033-.111.119-.148.286-.138.078.004.154.007.231.008.297.006.596-.003.893-.003.386 0 .773.013 1.158-.005.149-.007.224.017.248.107l.001.006c.02.05.02.12.011.212Zm-.008-2.545-.002.006c-.02.097-.093.116-.235.114h-.04l-.074-.001a71.735 71.735 0 0 0-2.205.002c-.128.003-.194-.02-.231-.08-.034-.04-.054-.101-.064-.195a13.289 13.289 0 0 0-.488-2.48 19.519 19.519 0 0 0-.197-.601l-.078-.21a14.772 14.772 0 0 0-.43-1.008 12.73 12.73 0 0 0-.315-.615l-.11-.197a12.763 12.763 0 0 0-.376-.617 12.867 12.867 0 0 0-.466-.689c-.125-.17-.24-.35-.388-.5-.16-.159-.152-.261.015-.412.277-.25.534-.525.798-.79.274-.273.557-.538.816-.824.145-.16.224-.163.37.008a15.46 15.46 0 0 1 1.699 2.423c.076.136.155.273.226.412a16.42 16.42 0 0 1 .22.435 15.494 15.494 0 0 1 1.279 3.726l.036.161c.102.466.174.94.216 1.416l.003.023.03.3a.51.51 0 0 1-.01.193Z"/></svg>