<svg viewBox="0 0 20 20" xmlns="http://www.w3.org/2000/svg"><path d="M19.47 14.98a.586.586 0 0 0 .587-.587v-5.02a.586.586 0 0 0-.586-.587H14.45a.586.586 0 0 0-.544.37 12.64 12.64 0 0 0-2.592-3.748l-.488-.488a.586.586 0 0 0 0-1.136L13.609 1a.586.586 0 0 0-.414-1H1.898a.586.586 0 0 0-.415 1l2.784 2.784a.586.586 0 0 0 0 1.136l-.489.488A12.647 12.647 0 0 0 1.024 9.53a12.645 12.645 0 0 0-.967 4.863v2.51A3.1 3.1 0 0 0 3.153 20h8.787a3.08 3.08 0 0 0 1.924-.673v.087c0 .324.262.586.586.586h5.02a.586.586 0 0 0 .587-.586v-2.51a.586.586 0 0 0-.586-.586h-.042v-1.339h.042ZM3.313 1.171h8.468L9.186 3.766h-3.28L3.312 1.172Zm1.765 17.656H3.153a1.927 1.927 0 0 1-1.924-1.924v-1.925h1.338v.042a.586.586 0 0 0 1.17.049 1.933 1.933 0 0 1 1.25 1.25.586.586 0 0 0 .049 1.17h.042v1.338Zm8.745-5.02a.586.586 0 0 0-.586.585v2.51c0 .308.237.56.537.585a1.928 1.928 0 0 1-1.833 1.34H6.25V17.49h.041a.586.586 0 0 0 0-1.172h-.098a3.104 3.104 0 0 0-2.454-2.454v-.098a.586.586 0 0 0-1.172 0v.041H1.243c.066-1.317.356-2.603.864-3.828a11.48 11.48 0 0 1 2.5-3.743c.57-.57 1.054-1.054 1.3-1.298h.826l-.998 2.994a.586.586 0 0 0 1.112.37l.7-2.098.699 2.099a.586.586 0 1 0 1.111-.371L8.36 4.937h.827l1.3 1.3a11.481 11.481 0 0 1 2.5 3.742c.507 1.225.797 2.51.863 3.828h-.027Zm.586 2.51v-1.339h3.85v1.339h-3.85Zm4.477 2.51h-3.85V17.49h3.85v1.338Zm0-5.02h-3.85v-1.34h3.85v1.34Zm0-2.511h-3.85V9.958h3.85v1.339Z"/></svg>