<svg viewBox="0 0 20 20" xmlns="http://www.w3.org/2000/svg"><path d="M17.976 18.168c.334-.459.656-.89.962-1.333.084-.12.132-.11.234-.03.225.174.457.341.694.501.105.072.108.124.034.223-.31.416-.611.839-.94 1.293.304 0 .58.006.853-.004.136-.004.195.016.186.175a9.012 9.012 0 0 0 0 .859c.004.126-.038.163-.154.144-.025-.003-.051 0-.078 0-6.513 0-13.026 0-19.54.005-.193 0-.237-.05-.225-.234.017-.272.01-.547.001-.82-.003-.105.032-.13.132-.128.298.006.597.003.937.003l-.615-.773c-.122-.152-.242-.306-.37-.453-.063-.073-.052-.115.02-.172.246-.192.49-.385.73-.586.081-.07.121-.051.181.026.314.398.633.792.95 1.187.033.04.067.077.118.137.098-.356.142-.699.18-1.04.145-1.312.11-2.625-.004-3.936a42.7 42.7 0 0 0-.448-3.436c-.03-.18-.057-.358-.088-.538-.014-.083 0-.141.084-.19 1.668-.965 3.04-2.282 4.36-3.662a45.346 45.346 0 0 0 3.16-3.71.373.373 0 0 0 .084-.247C9.41.999 9.416.569 9.409.14c-.002-.112.031-.14.14-.139.3.007.6.007.899 0 .11-.002.141.028.14.14-.007.429-.003.858-.004 1.288 0 .077.004.146.058.217 1.185 1.561 2.446 3.056 3.854 4.422a25.62 25.62 0 0 0 3.606 2.941c.146.097.186.18.15.358-.406 2.01-.677 4.036-.602 6.095.03.871.132 1.735.286 2.592.005.031.02.061.039.115h.001Zm-13.081.653c.527 0 1.054-.003 1.58.002.112 0 .17-.023.209-.138.713-2.155 1.43-4.31 2.151-6.463.037-.111.033-.167-.075-.232a2.27 2.27 0 0 1-1.01-1.312c-.032-.106-.07-.145-.18-.151-.5-.028-1-.063-1.498-.099a40.385 40.385 0 0 1-2.828-.303c-.132-.018-.2-.01-.156.144.009.03.004.065.01.097.246 1.581.422 3.17.438 4.771.01 1.173-.057 2.34-.336 3.483-.048.198.013.205.173.202.507-.008 1.015-.003 1.522-.003v.002Zm10.21 0c.533 0 1.067-.008 1.6.004.175.003.185-.054.152-.2a16.655 16.655 0 0 1-.371-2.794c-.098-1.865.073-3.712.398-5.547.03-.173-.006-.173-.152-.152-.926.13-1.855.23-2.788.296a81.52 81.52 0 0 1-1.479.095c-.126.007-.187.044-.226.175-.165.55-.5.978-.983 1.284-.106.068-.134.118-.091.244.721 2.152 1.438 4.305 2.152 6.459.032.097.072.14.188.139.533-.009 1.067-.004 1.6-.004Zm1-9.795L16 8.944a31.025 31.025 0 0 1-3.99-3.775 37.576 37.576 0 0 1-1.901-2.297c-.084-.11-.134-.117-.221-.003-.23.299-.467.591-.707.882C7.86 5.355 6.465 6.887 4.898 8.255c-.297.26-.604.506-.913.764.028.014.042.03.06.03a54.57 54.57 0 0 0 3.592.302c.1.005.114-.045.14-.118.366-.983 1.214-1.583 2.227-1.582 1.003.002 1.864.607 2.213 1.573.04.11.085.128.193.123a51.508 51.508 0 0 0 2.799-.213c.288-.027.574-.07.895-.11v.002Zm-8.23 9.794h4.022c.152 0 .205-.07.158-.208l-1.63-4.89c-.136-.407-.273-.812-.428-1.27L7.875 18.82Zm3.296-8.818a1.17 1.17 0 0 0-1.167-1.177c-.653 0-1.175.517-1.177 1.166 0 .653.518 1.177 1.167 1.178a1.17 1.17 0 0 0 1.177-1.167Z"/><path d="m18.965 18.735 1.028-1.406-.953-.683-1.072 1.466c-.632-3.164-.236-6.093.256-8.582l.075-.378-.322-.216c-3.329-2.233-5.795-5.192-7.389-7.282V.102H9.412v1.551C7.489 4.165 4.458 7.514 2.054 8.916l-.347.203.065.393c.481 2.905.872 6.134.317 8.617L.929 16.7l-.917.73 1.059 1.304H0v1.164h20v-1.164h-1.035ZM9.998 2.808c1.437 1.847 3.475 4.217 6.12 6.233a50.466 50.466 0 0 1-3.854.325A2.353 2.353 0 0 0 10 7.671a2.353 2.353 0 0 0-2.264 1.695 50.473 50.473 0 0 1-3.792-.318c2.49-1.886 4.955-4.847 6.054-6.24ZM10 11.165A1.172 1.172 0 0 1 8.824 10 1.17 1.17 0 0 1 10 8.836c.649 0 1.177.522 1.177 1.164 0 .643-.528 1.165-1.177 1.165Zm-6.94-1.057c1.547.211 3.105.353 4.65.423a2.34 2.34 0 0 0 1.176 1.52l-2.251 6.684H3.15c.659-2.51.364-5.688-.092-8.627ZM10 12.424l2.125 6.31h-4.25L10 12.425Zm3.365 6.31-2.25-6.683a2.34 2.34 0 0 0 1.176-1.52c1.536-.07 3.087-.21 4.627-.42-.455 2.53-.732 5.455-.02 8.624h-3.533Z"/></svg>