<svg viewBox="0 0 20 20" xmlns="http://www.w3.org/2000/svg"><path d="M7.932 11.622V9.208c.001-.486.41-.718.829-.468 1.332.794 2.663 1.59 3.993 2.388.451.271.448.717-.005.988-1.326.794-2.657 1.579-3.978 2.38-.449.272-.861-.078-.847-.478.027-.798.007-1.597.007-2.396h.001Zm3.624-.002c-.87-.52-1.72-1.03-2.579-1.542v3.083l2.579-1.541Z"/><path d="M17.15 0v.762H2.85V0H1.678v2.696H2.85v-.762h.677v14.755L10 20l6.473-3.31V1.933h.677v.762h1.172V0H17.15ZM15.3 15.972 10 18.683l-5.3-2.71V4.52h2.08v1.355h6.505V4.52H15.3v11.452Zm0-12.624h-3.187v1.355h-4.16V3.348H4.7V1.934h10.6v1.414Z"/></svg>