<svg viewBox="0 0 20 20" xmlns="http://www.w3.org/2000/svg"><path d="M10 0C4.477 0 0 4.477 0 10s4.477 10 10 10 10-4.477 10-10S15.523 0 10 0Zm7.69 5.44a8.849 8.849 0 0 1 1.209 3.728l-1.958-1.423.749-2.306Zm-1.37-1.76c.18.18.35.367.513.558l-1.06 3.263-2.246.73-2.934-2.132V3.738l2.78-2.02A8.917 8.917 0 0 1 16.32 3.68Zm-3.595 5.435-1.04 3.203h-3.37l-1.04-3.203L10 7.135l2.725 1.98ZM10 1.063c.668 0 1.325.073 1.961.214L10 2.702 8.039 1.277A9.016 9.016 0 0 1 10 1.063ZM3.68 3.68a8.924 8.924 0 0 1 2.948-1.96l2.779 2.019V6.1L6.473 8.231 4.227 7.5l-1.06-3.263a9.3 9.3 0 0 1 .513-.558ZM2.31 5.44l.75 2.305L1.1 9.168a8.849 8.849 0 0 1 1.21-3.729Zm.096 9.278a8.856 8.856 0 0 1-1.32-4.073L3.86 8.63l2.246.73 1.12 3.448-1.388 1.91H2.406ZM3.68 16.32a9.018 9.018 0 0 1-.39-.416h2.42l.75 2.307a8.93 8.93 0 0 1-2.78-1.891Zm8.46 2.36a8.99 8.99 0 0 1-4.28 0L6.8 15.416l1.388-1.91h3.626l1.388 1.91-1.06 3.266Zm4.18-2.36a8.93 8.93 0 0 1-2.78 1.891l.75-2.307h2.42c-.126.142-.255.28-.39.416Zm-2.16-1.602-1.387-1.91 1.12-3.45 2.246-.729 2.776 2.016a8.857 8.857 0 0 1-1.32 4.073H14.16Z"/></svg>