<svg viewBox="0 0 20 20" xmlns="http://www.w3.org/2000/svg"><path fill-rule="evenodd" clip-rule="evenodd" d="M4.668 18.672v-.892c0-1.224.996-2.22 2.22-2.22h.892v-2.454a6.061 6.061 0 0 1-1.214-1.022C4.79 11.97 3.154 10.898 1.93 9.058.684 7.186 0 4.713 0 2.095c0-.366.297-.663.664-.663h2.46a24.49 24.49 0 0 1-.012-.768c0-.367.297-.664.664-.664h12.448c.367 0 .664.297.664.664 0 .257-.004.513-.012.768h2.46c.367 0 .664.297.664.663 0 2.618-.684 5.09-1.93 6.963-1.224 1.84-2.86 2.91-4.636 3.026-.384.415-.79.757-1.214 1.022v2.454h.892c1.224 0 2.22.996 2.22 2.22v.892h.622V20H4.046v-1.327h.622ZM3.035 8.323c.671 1.009 1.471 1.724 2.331 2.11a12.258 12.258 0 0 1-.36-.67c-.97-1.939-1.592-4.373-1.808-7.004H1.344c.102 2.112.695 4.067 1.691 5.564Zm4.303 2.634a9.086 9.086 0 0 1-1.145-1.788C5.14 7.067 4.528 4.304 4.448 1.327h11.104c-.08 2.977-.693 5.74-1.745 7.842a9.092 9.092 0 0 1-1.145 1.788.657.657 0 0 0-.079.092c-.41.47-.84.824-1.283 1.059a2.727 2.727 0 0 1-1.3.34 2.728 2.728 0 0 1-1.3-.34c-.442-.235-.874-.59-1.283-1.06a.672.672 0 0 0-.079-.091Zm9.627-2.634c.996-1.497 1.589-3.452 1.691-5.564h-1.854c-.216 2.631-.838 5.065-1.807 7.004-.117.233-.237.456-.361.67.86-.386 1.66-1.101 2.33-2.11ZM9.108 15.56v-1.889a3.88 3.88 0 0 0 1.784 0v1.89H9.108Zm4.896 3.113v-.893c0-.492-.4-.892-.892-.892H6.888c-.492 0-.892.4-.892.892v.893h8.008Z"/></svg>